<svg xmlns="http://www.w3.org/2000/svg" viewBox="0 0 220 220" width="220" height="220">
  <defs>
    <clipPath id="clip_classic"><circle cx="110.00" cy="102.00" r="80.00"/></clipPath>
      <filter id="softshadow" x="-50%" y="-50%" width="200%" height="200%"><feGaussianBlur stdDeviation="4"/></filter>

    <radialGradient id="rim_classic" cx="50%" cy="50%" r="50%">
      <stop offset="0%" stop-color="#000" stop-opacity="0"/>
      <stop offset="62%" stop-color="#000" stop-opacity="0"/>
      <stop offset="88%" stop-color="#000" stop-opacity="0.17"/>
      <stop offset="100%" stop-color="#000" stop-opacity="0.34"/>
    </radialGradient>
    <radialGradient id="hi_classic" cx="34%" cy="28%" r="46%">
      <stop offset="0%" stop-color="rgba(255,255,255,0.92)"/>
      <stop offset="55%" stop-color="rgba(255,255,255,0.18)"/>
      <stop offset="100%" stop-color="rgba(255,255,255,0)"/>
    </radialGradient>
  </defs>
  <ellipse cx="110.00" cy="191.00" rx="65.60" ry="9.5" fill="rgba(0,0,0,0.20)" filter="url(#softshadow)"/>
  <circle cx="110.00" cy="102.00" r="80.00" fill="white"/>
  <g clip-path="url(#clip_classic)">
      <path d="M 110.00,74.80 L 135.87,93.59 L 125.99,124.01 L 94.01,124.01 L 84.13,93.59 Z" fill="#1d1d1d"/>
      <path d="M 110.00,60.40 L 85.65,42.71 L 94.95,14.09 L 125.05,14.09 L 134.35,42.71 Z" fill="#1d1d1d"/>
      <line x1="110.00" y1="74.80" x2="110.00" y2="34.80" stroke="#454545" stroke-width="1.6"/>
      <path d="M 149.56,89.14 L 158.86,60.52 L 188.96,60.52 L 198.26,89.14 L 173.91,106.83 Z" fill="#1d1d1d"/>
      <line x1="135.87" y1="93.59" x2="173.91" y2="81.23" stroke="#454545" stroke-width="1.6"/>
      <path d="M 134.45,135.66 L 164.55,135.66 L 173.85,164.28 L 149.50,181.97 L 125.15,164.28 Z" fill="#1d1d1d"/>
      <line x1="125.99" y1="124.01" x2="149.50" y2="156.37" stroke="#454545" stroke-width="1.6"/>
      <path d="M 85.55,135.66 L 94.85,164.28 L 70.50,181.97 L 46.15,164.28 L 55.45,135.66 Z" fill="#1d1d1d"/>
      <line x1="94.01" y1="124.01" x2="70.50" y2="156.37" stroke="#454545" stroke-width="1.6"/>
      <path d="M 70.44,89.14 L 46.09,106.83 L 21.74,89.14 L 31.04,60.52 L 61.14,60.52 Z" fill="#1d1d1d"/>
      <line x1="84.13" y1="93.59" x2="46.09" y2="81.23" stroke="#454545" stroke-width="1.6"/>
  </g>

  <circle cx="110.00" cy="102.00" r="80.00" fill="url(#hi_classic)"/>
  <circle cx="110.00" cy="102.00" r="80.00" fill="url(#rim_classic)"/>
  <circle cx="110.00" cy="102.00" r="80.00" fill="none"
          stroke="rgba(0,0,0,0.28)" stroke-width="1.4"/>
</svg>
